<svg width="113" height="19" viewBox="0 0 113 19" fill="none" xmlns="http://www.w3.org/2000/svg">
<path d="M13.608 1.152V4.44H9.144V18H5.04V4.44H0.576V1.152H13.608ZM28.2917 11.088C28.2917 11.472 28.2677 11.872 28.2197 12.288H18.9317C18.9957 13.12 19.2597 13.76 19.7237 14.208C20.2037 14.64 20.7877 14.856 21.4757 14.856C22.4997 14.856 23.2117 14.424 23.6117 13.56H27.9797C27.7557 14.44 27.3477 15.232 26.7557 15.936C26.1797 16.64 25.4517 17.192 24.5717 17.592C23.6917 17.992 22.7077 18.192 21.6197 18.192C20.3077 18.192 19.1397 17.912 18.1157 17.352C17.0917 16.792 16.2917 15.992 15.7157 14.952C15.1397 13.912 14.8517 12.696 14.8517 11.304C14.8517 9.912 15.1317 8.696 15.6917 7.656C16.2677 6.616 17.0677 5.816 18.0917 5.256C19.1157 4.696 20.2917 4.416 21.6197 4.416C22.9157 4.416 24.0677 4.688 25.0757 5.232C26.0837 5.776 26.8677 6.552 27.4277 7.56C28.0037 8.568 28.2917 9.744 28.2917 11.088ZM24.0917 10.008C24.0917 9.304 23.8517 8.744 23.3717 8.328C22.8917 7.912 22.2917 7.704 21.5717 7.704C20.8837 7.704 20.2997 7.904 19.8197 8.304C19.3557 8.704 19.0677 9.272 18.9557 10.008H24.0917ZM29.6408 11.28C29.6408 9.904 29.8968 8.696 30.4088 7.656C30.9368 6.616 31.6488 5.816 32.5448 5.256C33.4408 4.696 34.4408 4.416 35.5448 4.416C36.4888 4.416 37.3128 4.608 38.0168 4.992C38.7368 5.376 39.2888 5.88 39.6728 6.504V4.608H43.7768V18H39.6728V16.104C39.2728 16.728 38.7128 17.232 37.9928 17.616C37.2888 18 36.4648 18.192 35.5208 18.192C34.4328 18.192 33.4408 17.912 32.5448 17.352C31.6488 16.776 30.9368 15.968 30.4088 14.928C29.8968 13.872 29.6408 12.656 29.6408 11.28ZM39.6728 11.304C39.6728 10.28 39.3848 9.472 38.8088 8.88C38.2488 8.288 37.5608 7.992 36.7448 7.992C35.9288 7.992 35.2328 8.288 34.6568 8.88C34.0968 9.456 33.8168 10.256 33.8168 11.28C33.8168 12.304 34.0968 13.12 34.6568 13.728C35.2328 14.32 35.9288 14.616 36.7448 14.616C37.5608 14.616 38.2488 14.32 38.8088 13.728C39.3848 13.136 39.6728 12.328 39.6728 11.304ZM59.5858 6.576C59.5858 7.552 59.3618 8.448 58.9138 9.264C58.4658 10.064 57.7778 10.712 56.8498 11.208C55.9218 11.704 54.7698 11.952 53.3938 11.952H50.8498V18H46.7458V1.152H53.3938C54.7378 1.152 55.8738 1.384 56.8018 1.848C57.7298 2.312 58.4258 2.952 58.8898 3.768C59.3538 4.584 59.5858 5.52 59.5858 6.576ZM53.0818 8.688C53.8658 8.688 54.4498 8.504 54.8338 8.136C55.2178 7.768 55.4098 7.248 55.4098 6.576C55.4098 5.904 55.2178 5.384 54.8338 5.016C54.4498 4.648 53.8658 4.464 53.0818 4.464H50.8498V8.688H53.0818ZM65.8264 0.24V18H61.7224V0.24H65.8264ZM67.9845 11.28C67.9845 9.904 68.2405 8.696 68.7525 7.656C69.2805 6.616 69.9925 5.816 70.8885 5.256C71.7845 4.696 72.7845 4.416 73.8885 4.416C74.8325 4.416 75.6565 4.608 76.3605 4.992C77.0805 5.376 77.6325 5.88 78.0165 6.504V4.608H82.1205V18H78.0165V16.104C77.6165 16.728 77.0565 17.232 76.3365 17.616C75.6325 18 74.8085 18.192 73.8645 18.192C72.7765 18.192 71.7845 17.912 70.8885 17.352C69.9925 16.776 69.2805 15.968 68.7525 14.928C68.2405 13.872 67.9845 12.656 67.9845 11.28ZM78.0165 11.304C78.0165 10.28 77.7285 9.472 77.1525 8.88C76.5925 8.288 75.9045 7.992 75.0885 7.992C74.2725 7.992 73.5765 8.288 73.0005 8.88C72.4405 9.456 72.1605 10.256 72.1605 11.28C72.1605 12.304 72.4405 13.12 73.0005 13.728C73.5765 14.32 74.2725 14.616 75.0885 14.616C75.9045 14.616 76.5925 14.32 77.1525 13.728C77.7285 13.136 78.0165 12.328 78.0165 11.304ZM84.2736 11.304C84.2736 9.912 84.5536 8.696 85.1136 7.656C85.6896 6.616 86.4816 5.816 87.4896 5.256C88.5136 4.696 89.6816 4.416 90.9936 4.416C92.6736 4.416 94.0736 4.856 95.1936 5.736C96.3296 6.616 97.0736 7.856 97.4256 9.456H93.0576C92.6896 8.432 91.9776 7.92 90.9216 7.92C90.1696 7.92 89.5696 8.216 89.1216 8.808C88.6736 9.384 88.4496 10.216 88.4496 11.304C88.4496 12.392 88.6736 13.232 89.1216 13.824C89.5696 14.4 90.1696 14.688 90.9216 14.688C91.9776 14.688 92.6896 14.176 93.0576 13.152H97.4256C97.0736 14.72 96.3296 15.952 95.1936 16.848C94.0576 17.744 92.6576 18.192 90.9936 18.192C89.6816 18.192 88.5136 17.912 87.4896 17.352C86.4816 16.792 85.6896 15.992 85.1136 14.952C84.5536 13.912 84.2736 12.696 84.2736 11.304ZM112.245 11.088C112.245 11.472 112.221 11.872 112.173 12.288H102.885C102.949 13.12 103.213 13.76 103.677 14.208C104.157 14.64 104.741 14.856 105.429 14.856C106.453 14.856 107.165 14.424 107.565 13.56H111.933C111.709 14.44 111.301 15.232 110.709 15.936C110.133 16.64 109.405 17.192 108.525 17.592C107.645 17.992 106.661 18.192 105.573 18.192C104.261 18.192 103.093 17.912 102.069 17.352C101.045 16.792 100.245 15.992 99.6688 14.952C99.0928 13.912 98.8048 12.696 98.8048 11.304C98.8048 9.912 99.0848 8.696 99.6448 7.656C100.221 6.616 101.021 5.816 102.045 5.256C103.069 4.696 104.245 4.416 105.573 4.416C106.869 4.416 108.021 4.688 109.029 5.232C110.037 5.776 110.821 6.552 111.381 7.56C111.957 8.568 112.245 9.744 112.245 11.088ZM108.045 10.008C108.045 9.304 107.805 8.744 107.325 8.328C106.845 7.912 106.245 7.704 105.525 7.704C104.837 7.704 104.253 7.904 103.773 8.304C103.309 8.704 103.021 9.272 102.909 10.008H108.045Z" fill="#7A4900"/>
</svg>
